<svg width="200" height="200" xmlns="http://www.w3.org/2000/svg" xmlns:svg="http://www.w3.org/2000/svg" class="canvas">
 <g>
  <title>logo</title>
  <g stroke="null" id="svg_3">
   <g stroke="null" class="logo__item__inner" transform="translate(855.0155639648438,435) scale(0.933125913143158) " id="svg_4">
    <g stroke="null" id="svg_5">
     <path stroke="null" fill="#CF7046" d="m-820.57423,-351.61332c-4.08827,-4.08827 -9.32126,-6.37771 -14.71778,-7.03183c-4.08827,-0.98119 -21.91315,-6.37771 -27.63673,-27.4732c-0.49059,-5.39652 -2.78003,-10.79304 -7.03183,-14.88132c-9.48479,-9.48479 -24.8567,-9.48479 -34.17797,0c-9.48479,9.48479 -9.48479,24.8567 0,34.17797c2.94356,2.94356 6.54124,5.06946 10.30245,6.05064l0,0c0,0 0,0 0,0c0.81765,0.32706 1.79884,0.49059 2.78003,0.65412c6.8683,1.79884 24.36611,8.34008 29.27204,28.12732c0.65412,5.23299 2.94356,10.30245 6.8683,14.39072c9.48479,9.48479 24.8567,9.48479 34.17797,0c9.64833,-9.32126 9.64833,-24.52964 0.16353,-34.01444z" id="svg_6"/>
     <circle stroke="null" fill="#FFFFFE" cx="-837.74498" cy="-334.44257" r="9.81183" id="svg_7"/>
     <circle stroke="null" fill="#FFFFFE" cx="-886.96779" cy="-383.82892" r="9.81183" id="svg_8"/>
     <g stroke="null" id="svg_9">
      <path stroke="null" fill="#df366c" d="m-815.34124,-371.0735c4.08827,-4.08827 6.37771,-9.32126 7.03183,-14.71778c0.98119,-4.08827 6.37771,-21.91315 27.4732,-27.63673c5.39652,-0.49059 10.79304,-2.78003 14.88132,-7.03183c9.48479,-9.48479 9.48479,-24.8567 0,-34.17797c-9.48479,-9.48479 -24.8567,-9.48479 -34.17797,0c-2.94356,2.94356 -5.06946,6.54124 -6.05064,10.30245l0,0c0,0 0,0 0,0c-0.32706,0.81765 -0.49059,1.79884 -0.65412,2.78003c-1.96237,6.8683 -8.50361,24.36611 -28.45438,29.27204c-5.23299,0.65412 -10.30245,2.94356 -14.39072,6.8683c-9.48479,9.48479 -9.48479,24.8567 0,34.17797c9.48479,9.64833 24.8567,9.64833 34.3415,0.16353z" id="svg_10"/>
      <circle stroke="null" fill="#FFFFFF" cx="-832.51199" cy="-388.24425" r="9.81183" id="svg_11"/>
      <circle stroke="null" fill="#FFFFFF" cx="-783.28918" cy="-437.46706" r="9.81183" id="svg_12"/>
     </g>
     <g stroke="null" id="svg_13">
      <path stroke="null" fill="#107C79" d="m-797.02578,-366.3311c4.08827,4.08827 9.32126,6.37771 14.71778,7.03183c4.08827,0.98119 21.91315,6.37771 27.63673,27.4732c0.49059,5.39652 2.78003,10.79304 7.03183,14.88132c9.48479,9.48479 24.8567,9.48479 34.17797,0c9.48479,-9.48479 9.48479,-24.8567 0,-34.17797c-2.94356,-2.94356 -6.54124,-5.06946 -10.30245,-6.05064l0,0c0,0 0,0 0,0c-0.81765,-0.32706 -1.79884,-0.49059 -2.78003,-0.65412c-6.8683,-1.79884 -24.36611,-8.34008 -29.27204,-28.12732c-0.65412,-5.23299 -2.94356,-10.30245 -6.8683,-14.39072c-9.48479,-9.48479 -24.8567,-9.48479 -34.17797,0c-9.64833,9.32126 -9.64833,24.52964 -0.16353,34.01444z" id="svg_14"/>
      <circle stroke="null" fill="#FFFFFE" cx="-779.85503" cy="-383.50185" r="9.81183" id="svg_15"/>
      <circle stroke="null" fill="#FFFFFE" cx="-730.63221" cy="-334.11551" r="9.81183" id="svg_16"/>
     </g>
     <g stroke="null" id="svg_17">
      <path stroke="null" fill="#00A8DE" d="m-801.44111,-346.87092c-4.08827,4.08827 -6.37771,9.32126 -7.03183,14.71778c-0.98119,4.08827 -6.37771,21.91315 -27.4732,27.63673c-5.39652,0.49059 -10.79304,2.78003 -14.88132,7.03183c-9.48479,9.48479 -9.48479,24.8567 0,34.17797c9.48479,9.48479 24.8567,9.48479 34.17797,0c2.94356,-2.94356 5.06946,-6.54124 6.05064,-10.30245l0,0c0,0 0,0 0,0c0.32706,-0.81765 0.49059,-1.79884 0.65412,-2.78003c1.79884,-6.8683 8.34008,-24.36611 28.12732,-29.27204c5.23299,-0.65412 10.30245,-2.94356 14.39072,-6.8683c9.48479,-9.48479 9.48479,-24.8567 0,-34.17797c-9.32126,-9.64833 -24.52964,-9.64833 -34.01444,-0.16353z" id="svg_18"/>
      <circle stroke="null" fill="#FFFFFE" cx="-784.27036" cy="-329.70017" r="9.81183" id="svg_19"/>
      <circle stroke="null" fill="#FFFFFE" cx="-833.65671" cy="-280.47736" r="9.81183" id="svg_20"/>
     </g>
    </g>
   </g>
  </g>
 </g>
</svg>